<?xml version="1.0" standalone="no"?>
<!DOCTYPE svg PUBLIC "-//W3C//DTD SVG 20010904//EN"
 "http://www.w3.org/TR/2001/REC-SVG-20010904/DTD/svg10.dtd">
<svg version="1.0" xmlns="http://www.w3.org/2000/svg"
 width="1024.000000pt" height="1024.000000pt" viewBox="0 0 1024.000000 1024.000000"
 preserveAspectRatio="xMidYMid meet">

<g transform="translate(0.000000,1024.000000) scale(0.100000,-0.100000)"
fill="#000000" stroke="none">
<path d="M2374 8509 c-47 -23 -54 -55 -54 -243 l0 -176 1635 0 1635 0 0 168
c0 183 -10 224 -60 249 -32 16 -3123 18 -3156 2z"/>
<path d="M1835 7871 c-11 -5 -29 -19 -40 -31 -20 -22 -20 -38 -23 -2696 l-2
-2674 -146 0 c-153 0 -192 -9 -214 -49 -15 -28 -13 -413 2 -446 27 -59 -130
-55 2300 -55 l2233 1 -30 22 c-314 234 -631 551 -791 792 -153 230 -274 524
-364 885 -78 316 -90 447 -90 996 0 410 1 438 20 492 29 83 86 160 157 211
l63 45 -28 29 -27 28 -3 259 -3 259 30 33 29 33 262 -1 261 -1 27 -27 27 -26
5 -235 5 -234 150 58 c150 58 305 131 423 199 l62 36 -2 1023 -3 1023 -28 27
-27 28 -2108 2 c-1159 1 -2116 -2 -2127 -6z m1202 -816 c12 -9 27 -32 33 -53
13 -48 13 -446 0 -494 -19 -67 -23 -68 -317 -68 l-262 0 -28 24 -28 24 -3 213
c-4 256 1 313 33 345 l24 24 263 0 c220 0 267 -3 285 -15z m1213 -13 c37 -38
42 -84 38 -340 l-3 -204 -33 -29 -32 -29 -256 0 -256 0 -29 29 -29 29 0 247
c0 256 3 274 44 307 19 16 49 18 274 18 l254 0 28 -28z m1211 -1 l29 -29 0
-257 0 -257 -29 -29 -29 -29 -264 0 -265 0 -24 26 c-24 25 -24 26 -27 280 l-3
255 35 35 34 34 257 0 257 0 29 -29z m-2434 -1051 c45 -29 48 -48 48 -312 l0
-250 -33 -29 -32 -29 -253 0 c-217 0 -256 2 -276 16 -45 32 -51 67 -51 304 0
225 7 274 41 296 24 15 99 19 319 19 167 -1 220 -4 237 -15z m1222 -14 c34
-31 39 -71 37 -314 l-1 -234 -33 -29 -32 -29 -256 0 -256 0 -29 29 -29 29 0
256 0 255 24 28 c23 27 30 28 128 33 56 3 176 3 264 0 140 -4 165 -8 183 -24z
m-1207 -1061 c35 -35 38 -58 38 -294 0 -235 -7 -273 -53 -301 -29 -18 -52 -20
-269 -20 -130 0 -248 4 -262 10 -56 21 -61 44 -64 289 -4 253 -1 283 33 317
l24 24 264 0 264 0 25 -25z m1203 3 c14 -13 29 -36 33 -53 5 -16 8 -134 7
-261 -1 -253 -5 -273 -62 -295 -16 -6 -124 -9 -271 -7 l-244 3 -29 33 -29 32
0 256 0 256 29 29 29 29 256 0 c250 0 255 0 281 -22z m127 -1273 c14 -14 28
-39 32 -56 3 -18 6 -276 6 -575 l0 -544 -605 0 -605 0 0 571 0 571 29 29 29
29 545 0 544 0 25 -25z"/>
<path d="M6655 5857 c-16 -8 -43 -25 -60 -39 -50 -41 -274 -192 -369 -247
-347 -204 -769 -353 -1147 -406 -117 -16 -143 -30 -177 -96 l-24 -44 6 -435
c6 -447 16 -586 57 -825 69 -393 253 -791 514 -1105 97 -117 314 -335 415
-416 202 -164 464 -338 679 -452 105 -56 107 -57 191 -57 79 0 91 3 174 43
240 115 596 355 811 547 447 399 709 854 819 1421 48 247 57 372 63 825 3 235
3 443 -1 462 -15 79 -89 131 -201 140 -221 18 -578 125 -885 266 -185 85 -321
163 -539 309 -169 113 -176 116 -235 119 -37 2 -73 -2 -91 -10z"/>
</g>
</svg>
