<?xml version="1.0" standalone="no"?>
<!DOCTYPE svg PUBLIC "-//W3C//DTD SVG 20010904//EN"
 "http://www.w3.org/TR/2001/REC-SVG-20010904/DTD/svg10.dtd">
<svg version="1.0" xmlns="http://www.w3.org/2000/svg"
 width="1024.000000pt" height="1024.000000pt" viewBox="0 0 1024.000000 1024.000000"
 preserveAspectRatio="xMidYMid meet">

<g transform="translate(0.000000,1024.000000) scale(0.100000,-0.100000)"
fill="#000000" stroke="none">
<path d="M4941 7479 c-224 -39 -470 -181 -612 -353 -301 -366 -331 -857 -74
-1251 60 -93 226 -252 323 -309 283 -168 620 -196 928 -77 174 67 373 230 479
390 177 269 218 606 112 916 -111 324 -385 575 -725 667 -88 23 -339 34 -431
17z m337 -314 c374 -88 622 -452 561 -825 -24 -151 -84 -271 -192 -386 -214
-227 -526 -294 -810 -173 -94 40 -171 93 -247 170 -82 84 -142 188 -176 307
-24 85 -26 106 -22 215 4 98 10 138 32 202 39 114 98 208 185 295 140 139 308
209 501 209 60 1 132 -6 168 -14z"/>
<path d="M2970 7031 c-304 -66 -531 -273 -625 -571 -38 -119 -45 -295 -17
-431 45 -217 171 -404 358 -529 243 -162 577 -184 835 -55 233 117 383 300
450 550 29 104 31 305 5 409 -72 295 -304 534 -596 616 -109 31 -297 36 -410
11z m305 -296 c244 -62 417 -279 418 -525 1 -155 -49 -276 -158 -386 -188
-190 -466 -217 -688 -67 -153 103 -237 263 -237 450 0 151 52 275 160 383 134
134 329 190 505 145z"/>
<path d="M6910 7031 c-326 -72 -569 -311 -647 -636 -22 -93 -22 -286 1 -379
42 -173 107 -290 235 -416 105 -104 209 -167 346 -210 94 -30 308 -39 410 -17
259 55 476 221 593 452 36 72 73 207 82 300 39 416 -211 781 -613 896 -106 30
-295 35 -407 10z m285 -296 c110 -23 189 -68 276 -154 114 -114 159 -222 159
-382 0 -243 -159 -452 -399 -523 -131 -39 -324 -8 -438 69 -404 273 -288 887
187 989 85 19 130 19 215 1z"/>
<path d="M2823 5180 c-487 -54 -912 -382 -1073 -829 -67 -185 -75 -234 -75
-481 l0 -225 32 -68 c44 -93 119 -169 212 -215 l75 -37 695 -5 696 -5 6 -120
c6 -126 21 -181 72 -268 60 -102 196 -194 331 -223 49 -11 318 -13 1326 -14
1391 0 1324 -3 1459 62 84 40 185 140 224 221 36 75 57 172 57 270 l0 77 675
0 c653 0 678 1 736 20 79 27 123 56 182 119 60 64 107 162 117 244 11 89 2
316 -16 417 -84 461 -402 837 -842 994 -159 57 -243 68 -559 73 -311 6 -425
-2 -568 -38 -102 -26 -227 -79 -333 -142 l-84 -49 -37 25 c-112 74 -284 144
-439 178 -88 19 -136 22 -501 26 -431 5 -556 -1 -702 -39 -111 -28 -251 -85
-344 -142 l-77 -47 -56 35 c-89 53 -169 91 -264 124 -160 57 -223 65 -553 68
-165 1 -333 -1 -372 -6z m762 -329 c88 -25 225 -85 225 -99 0 -5 -12 -19 -26
-33 -62 -56 -178 -228 -239 -353 -108 -221 -143 -359 -152 -588 l-6 -158 -654
0 c-728 0 -701 -2 -744 67 -20 33 -21 43 -16 206 4 131 10 191 27 251 90 332
327 581 658 691 119 39 185 44 522 41 302 -2 331 -4 405 -25z m2018 14 c375
-65 732 -358 868 -709 41 -105 64 -200 78 -311 14 -118 14 -632 0 -689 -14
-56 -62 -114 -113 -137 -39 -18 -97 -19 -1314 -19 -1126 0 -1277 2 -1310 15
-47 20 -79 50 -104 99 -19 37 -20 60 -21 370 -1 275 2 347 16 423 72 382 292
681 627 852 121 62 164 77 275 101 80 16 138 19 501 19 323 1 430 -2 497 -14z
m1827 5 c418 -67 754 -390 825 -794 8 -51 15 -147 15 -225 0 -119 -3 -140 -20
-169 -39 -63 -23 -62 -738 -62 l-649 0 -6 138 c-15 349 -138 667 -357 921 -69
81 -70 77 10 113 72 33 150 58 220 73 80 16 604 20 700 5z"/>
</g>
</svg>
