<?xml version="1.0" standalone="no"?>
<!DOCTYPE svg PUBLIC "-//W3C//DTD SVG 20010904//EN"
 "http://www.w3.org/TR/2001/REC-SVG-20010904/DTD/svg10.dtd">
<svg version="1.0" xmlns="http://www.w3.org/2000/svg"
 width="1024.000000pt" height="1024.000000pt" viewBox="0 0 1024.000000 1024.000000"
 preserveAspectRatio="xMidYMid meet">

<g transform="translate(0.000000,1024.000000) scale(0.100000,-0.100000)"
fill="#000000" stroke="none">
<path d="M2584 8941 c-68 -31 -240 -274 -352 -497 -179 -356 -256 -680 -256
-1069 0 -295 43 -537 144 -815 88 -240 269 -560 400 -703 86 -94 168 -102 246
-23 76 75 70 146 -19 263 -252 328 -402 719 -438 1143 -6 74 -8 176 -4 225 31
435 160 788 415 1140 108 149 119 186 77 265 -16 30 -37 51 -67 67 -52 28 -91
29 -146 4z"/>
<path d="M7505 8937 c-74 -42 -105 -138 -69 -210 9 -18 38 -59 64 -92 187
-237 340 -563 399 -850 30 -151 41 -255 41 -407 0 -461 -150 -899 -432 -1261
-38 -49 -73 -99 -78 -113 -28 -72 9 -164 80 -201 86 -46 156 -21 242 83 95
117 186 262 268 426 248 498 314 1069 186 1603 -84 350 -239 671 -450 932 -91
113 -164 139 -251 90z"/>
<path d="M3205 8480 c-105 -54 -314 -386 -394 -628 -56 -169 -66 -244 -65
-482 0 -199 2 -224 28 -334 62 -265 163 -476 322 -675 95 -118 160 -144 248
-101 59 28 91 81 90 146 0 57 -7 70 -109 199 -61 77 -150 244 -184 344 -47
138 -63 223 -68 378 -6 174 9 290 59 433 53 151 117 266 226 409 35 47 68 96
73 109 27 70 -10 162 -81 199 -53 28 -93 29 -145 3z"/>
<path d="M6905 8486 c-57 -25 -115 -122 -101 -167 2 -8 7 -26 10 -41 4 -15 28
-53 54 -85 192 -235 290 -475 308 -758 7 -118 -13 -285 -52 -421 -37 -133
-129 -311 -224 -436 -84 -111 -98 -145 -86 -212 14 -76 110 -137 193 -122 50
10 136 97 222 225 195 294 291 639 274 996 -14 318 -144 648 -361 917 -87 107
-158 139 -237 104z"/>
<path d="M3813 8024 c-47 -23 -157 -163 -208 -263 -108 -214 -111 -533 -6
-758 54 -115 157 -250 212 -279 62 -32 160 -9 200 47 52 74 46 135 -21 224
-96 124 -140 245 -140 381 0 132 47 261 133 364 76 92 84 170 25 245 -41 52
-131 70 -195 39z"/>
<path d="M6274 8015 c-49 -29 -77 -82 -76 -141 0 -50 10 -70 70 -143 58 -71
97 -156 116 -253 20 -96 20 -110 0 -206 -18 -91 -69 -202 -119 -263 -51 -60
-65 -91 -65 -142 0 -85 75 -157 164 -157 65 0 101 22 161 97 134 169 195 349
195 576 0 232 -67 406 -221 581 -71 80 -148 97 -225 51z"/>
<path d="M4986 7944 c-184 -45 -336 -189 -402 -384 -30 -87 -26 -263 8 -352
46 -122 117 -218 207 -281 l25 -16 -34 -88 c-79 -210 -395 -1032 -595 -1548
-328 -845 -415 -1077 -415 -1105 0 -29 17 -50 40 -50 15 0 175 60 263 99 27
11 108 72 180 134 120 103 760 640 828 695 28 23 30 23 52 5 63 -50 813 -677
882 -737 84 -73 157 -112 309 -165 160 -57 165 -39 58 242 -44 117 -164 428
-267 692 -310 798 -656 1696 -681 1770 -19 53 -21 71 -12 76 66 37 147 127
189 211 108 214 65 478 -106 651 -137 138 -341 197 -529 151z m175 -1366 c36
-20 42 -31 100 -177 143 -362 218 -573 209 -590 -18 -34 -260 -254 -325 -297
-29 -19 -21 -23 -125 65 -141 120 -250 224 -250 240 0 15 68 198 230 621 28
74 59 141 68 148 23 18 49 15 93 -10z m-411 -1195 c57 -49 105 -92 106 -98 3
-9 -404 -355 -427 -363 -16 -6 164 484 198 541 8 14 21 6 123 -80z m881 50 c7
-21 50 -127 95 -235 74 -175 110 -278 98 -278 -4 0 -324 262 -416 340 l-29 26
82 69 c45 39 94 80 108 92 36 31 48 29 62 -14z"/>
<path d="M5075 4593 c-11 -3 -71 -39 -133 -82 -184 -125 -349 -226 -491 -303
-239 -128 -552 -253 -761 -303 -131 -32 -150 -71 -131 -261 31 -311 109 -611
232 -895 28 -66 50 -121 48 -123 -11 -10 -419 -276 -424 -276 -16 0 3 72 70
257 41 114 75 222 75 238 0 17 -12 64 -26 105 -14 41 -39 127 -55 190 -17 63
-37 137 -46 164 l-16 49 -74 -184 c-40 -101 -130 -330 -200 -509 -276 -711
-334 -855 -349 -870 -12 -12 -53 -16 -198 -20 -174 -5 -184 -6 -219 -30 -42
-28 -77 -91 -77 -136 1 -41 33 -107 65 -132 15 -12 44 -26 64 -31 20 -5 1187
-8 2716 -7 l2680 1 35 22 c112 69 103 241 -14 294 -34 16 -67 19 -199 19 -89
0 -167 5 -178 10 -10 6 -25 24 -34 39 -8 16 -98 242 -199 503 -300 771 -395
1010 -401 1016 -12 13 -25 -20 -59 -158 -20 -80 -51 -189 -68 -242 l-31 -97
86 -221 c89 -226 102 -276 70 -268 -10 3 -111 66 -225 141 l-207 136 43 93
c138 293 266 820 254 1040 -5 91 -31 120 -132 143 -363 87 -802 293 -1199 563
-192 131 -219 143 -292 125z m186 -479 c338 -217 601 -348 924 -459 77 -27
144 -51 148 -55 10 -9 -16 -163 -53 -304 -108 -416 -289 -750 -560 -1030 -152
-157 -332 -291 -507 -378 l-82 -41 -65 28 c-82 35 -252 142 -354 222 -100 80
-270 254 -351 361 -123 162 -227 352 -308 562 -67 173 -155 533 -140 573 3 8
56 31 119 52 320 106 602 245 936 460 81 52 149 95 153 95 3 0 66 -39 140 -86z
m-1143 -1890 c116 -145 256 -288 365 -374 l95 -75 -696 -3 c-401 -1 -700 2
-705 7 -11 11 21 33 288 196 116 71 288 180 384 242 96 62 178 112 181 111 4
-2 43 -48 88 -104z m2313 -26 c107 -69 280 -178 384 -242 246 -153 255 -159
255 -173 0 -10 -147 -13 -701 -13 l-700 0 78 62 c107 84 302 283 393 401 41
53 80 95 86 93 6 -2 98 -60 205 -128z"/>
<path d="M5070 3782 c-30 -15 -71 -77 -293 -442 -142 -234 -270 -449 -284
-478 -30 -64 -28 -123 6 -171 48 -68 31 -66 601 -69 355 -2 527 0 553 8 82 24
138 108 121 183 -7 34 -2 26 -308 532 -266 439 -254 422 -293 440 -40 19 -60
19 -103 -3z m93 -579 c22 -25 147 -250 147 -266 0 -32 -24 -37 -185 -37 -160
0 -185 5 -185 36 0 13 126 241 148 267 8 9 25 17 37 17 12 0 29 -8 38 -17z"/>
</g>
</svg>
